<?xml version="1.0" encoding="utf-8" ?>
<svg xmlns="http://www.w3.org/2000/svg" xmlns:xlink="http://www.w3.org/1999/xlink" width="1024" height="1024">
	<path fill="#FD8432" transform="scale(2 2)" d="M420.75 339.677C422.088 342.444 421.163 347.961 420.162 350.767C416.297 361.6 403.897 365.56 394.107 369.226C393.9 368.193 393.177 367.161 392.788 366.158C406.458 360.174 416.641 355.73 420.75 339.677Z"/>
	<path fill="#FD8432" transform="scale(2 2)" d="M409.123 412.689C414.79 427.136 410.639 442.772 395.201 448.744C387.36 451.777 383.964 450.449 376.953 447.766C393.52 446.843 408.091 440.36 409.07 421.096C409.213 418.275 408.373 415.479 409.123 412.689Z"/>
	<path fill="#FD8432" transform="scale(2 2)" d="M156.727 330.908C157.932 331.022 159.04 331.15 160.205 331.512C158.069 336.072 157.33 341.158 155.785 345.923C152.213 356.948 138.086 400.638 127.351 404.978C124.579 406.099 120.495 406.547 117.81 404.964C119.427 403.872 122.434 403.631 124.375 402.627C135.85 396.688 152.181 344.6 156.727 330.908Z"/>
	<path fill="#FD8432" transform="scale(2 2)" d="M180.592 221.825C174.95 216.313 170.55 209.365 165.774 203.088L102.63 119.91C97.6273 113.286 92.2275 106.726 87.5724 99.8657C74.3214 80.3383 89.8746 54.6349 113.832 62.1615C121.559 64.589 128.262 69.586 135.116 73.7763L165.342 92.1965C170.414 95.2973 175.33 98.7721 180.592 101.539C195.462 73.611 214.623 84.9645 237.584 95.7026C255.768 104.207 273.81 113.129 291.797 122.041L306.748 129.47C310.058 131.144 313.327 132.95 316.722 134.441C356.369 115.124 397.304 83.4616 444.675 93.5665C454.677 95.7001 467.32 100.102 473.11 109.138C478.653 117.79 474.436 126.572 472.435 135.562C464.959 155.872 448.801 175.002 431.949 188.661C417.462 201.676 389.358 223.895 370.995 232.029L365.65 234.995C378.063 254.263 389.123 274.402 400.614 294.23L412.309 314.54C417.593 323.849 420.872 328.671 420.75 339.677C416.641 355.73 406.458 360.174 392.788 366.158C393.177 367.161 393.9 368.193 394.107 369.226L392.788 369.976C394.4 378.929 401.734 393.178 405.293 402.24C406.048 404.164 408.41 411.618 409.123 412.689C408.373 415.479 409.213 418.275 409.07 421.096C408.091 440.36 393.52 446.843 376.953 447.766C358.582 444.036 351.918 432.044 340.614 418.092L291.747 358.948C277.302 341.156 263.072 323.099 248.226 305.645C226.85 316.681 193.043 333.834 168.388 332.848C165.788 332.744 162.489 332.996 160.205 331.512L160.205 331.512C159.04 331.15 157.932 331.022 156.727 330.908C152.181 344.6 135.85 396.688 124.375 402.627C122.434 403.631 119.427 403.872 117.81 404.964C94.9105 399.956 91.3567 357.281 90.0202 338.28C80.003 340.611 71.5994 341.486 61.3591 339.677C58.5138 337.896 55.2482 336.562 52.8721 334.131C40.469 321.442 63.0948 303.045 71.5666 295.301C64.3314 285.375 55.1797 275.543 47.5207 265.65C40.4468 256.512 31.5306 245.621 37.276 233.507C44.4867 218.303 63.1792 225.053 75.0175 229.645C94.6797 237.273 118.068 246.731 136.898 255.637C149.396 246.077 166.659 226.472 180.592 221.825ZM309.038 144.105C300.69 151.169 287.492 158.382 280.463 165.404C284.273 164.851 305.129 152.853 309.436 150.428C323.724 142.381 391.141 104.779 404.916 104.084C404.923 102.559 404.968 101.022 404.916 99.4987C386.707 99.6331 333.069 130.372 316.187 139.636C313.746 140.976 311.504 142.875 309.038 144.105ZM59.7351 334.065C60.427 331.34 58.2066 329.15 60.4277 324.547C69.1394 306.495 110.809 278.961 130.215 269.275C131.635 268.566 134.794 267.895 135.733 266.774L135.594 266.56L133.921 266.39C123.202 265.858 115.306 270.054 106.434 275.444C96.4442 281.513 33.8514 322.077 59.7351 334.065ZM183.952 219.376L185.413 217.888C180.877 212.525 176.771 206.838 172.517 201.254L115.665 126.147C109.535 118.109 101.366 108.478 96.3141 99.9144C88.2694 86.2759 95.315 67.612 112.299 67.788C114.15 67.8071 115.948 68.2354 117.81 68.1075C98.6203 59.1122 80.8225 72.9184 88.171 92.4267C90.4741 98.5405 95.8854 104.105 99.7193 109.305C111.022 124.636 122.626 139.771 134.202 154.9L170.749 202.982C174.775 208.267 178.921 215.113 183.952 219.376ZM251.54 299.089C250.95 299.388 250.174 299.636 249.879 300.263C255.446 308.354 262.273 315.826 268.439 323.464L342.696 413.895C349.848 422.535 357.01 433.961 366.95 439.671C365.939 438.061 364.461 436.579 363.239 435.107L261.44 310.891C258.188 306.944 254.645 303.137 251.54 299.089ZM187.047 221.825C174.289 229.507 146.383 249.69 136.898 261.991L145.706 262.444C148.245 259.455 152.096 256.777 155.096 254.214C166.287 244.654 177.541 235.674 189.467 227.082C191.239 225.805 193.17 224.575 194.785 223.108C191.59 224.677 189.966 223.65 187.047 221.825ZM76.4681 291.348C75.8132 288.721 73.0429 286.477 71.3194 284.454L59.0058 269.936C51.7528 261.414 39.4314 247.286 50.068 236.049C54.776 231.076 60.587 231.506 66.7987 231.255C60.6599 229.038 54.0496 226.328 47.684 229.37C35.3636 235.257 39.7013 248.19 46.1718 257.094C51.6034 264.569 73.0035 294.329 76.4681 291.348ZM98.3046 334.065L94.3798 335.371C95.2331 352.563 98.4992 391.524 113.67 399.371C113.283 397.591 110.877 394.208 109.981 392.249C105.122 381.63 103.196 370.299 101.513 358.831C100.908 354.707 99.5579 335.991 98.3046 334.065ZM183.952 104.084C185.907 105.185 187.871 106.272 189.789 107.437C194.987 98.2913 199.23 94.6868 210.26 92.0862C212.344 91.5947 214.618 91.947 216.541 90.8519C202.605 85.4763 189.527 89.7305 183.952 104.084ZM409.123 98.0951C409.135 99.585 409.186 101.089 409.123 102.577C417.561 100.08 426.096 98.2246 434.93 97.9703C438.668 97.8627 442.871 98.8356 446.514 98.0951C435.306 96.056 420.116 94.345 409.123 98.0951ZM392.788 369.976L394.107 369.226C393.9 368.193 393.177 367.161 392.788 366.158C390.288 367.36 391.674 368.106 392.788 369.976Z"/>
	<path fill="#FD8432" transform="scale(2 2)" d="M61.3591 339.677C63.8025 337.153 69.3585 339.131 72.4774 339.198C78.3831 339.325 83.993 337.864 89.7111 336.601C90.0926 337.168 89.9963 337.613 90.0202 338.28C80.003 340.611 71.5994 341.486 61.3591 339.677Z"/>
	<path fill="#FD8432" transform="scale(2 2)" d="M430.738 187.469C433.691 183.822 437.873 180.732 441.303 177.51C451.901 167.551 461.228 156.417 467.682 143.318C468.91 140.824 469.802 137.878 471.256 135.552L472.435 135.562C464.959 155.872 448.801 175.002 431.949 188.661L430.738 187.469Z"/>
	<path fill="#FD8432" transform="scale(2 2)" d="M430.738 187.469L431.949 188.661C417.462 201.676 389.358 223.895 370.995 232.029L365.65 234.995C363.824 232.756 368.649 231.14 370.163 230.286C371.972 228.61 374.775 227.173 376.853 225.82C395.88 213.434 412.599 200.558 430.738 187.469Z"/>
	<path fill="#FD8432" transform="scale(2 2)" d="M160.205 331.512C162.587 330.383 167.503 330.984 170.346 330.513C199.746 325.647 219.956 313.535 245.933 302.247C246.821 303.345 247.544 304.405 248.226 305.645C226.85 316.681 193.043 333.834 168.388 332.848C165.788 332.744 162.489 332.996 160.205 331.512Z"/>
	<path fill="#FD8432" transform="scale(2 2)" d="M187.047 221.825C188.439 220.606 190.377 219.627 191.952 218.643C204.278 210.943 300.497 145.373 309.038 144.105C300.69 151.169 287.492 158.382 280.463 165.404C274.069 168.716 267.035 174.275 260.981 178.439L204.772 216.27C201.512 218.444 197.764 220.581 194.785 223.108C191.59 224.677 189.966 223.65 187.047 221.825Z"/>
	<path fill="#FD8432" transform="scale(2 2)" d="M66.7987 231.255C72.8519 232.608 80.1515 236.423 86.039 238.801L133.921 258.578C127.566 263.221 118.956 263.522 111.909 267.454C98.4114 274.986 88.3846 284.042 76.4681 291.348C75.8132 288.721 73.0429 286.477 71.3194 284.454L59.0058 269.936C51.7528 261.414 39.4314 247.286 50.068 236.049C54.776 231.076 60.587 231.506 66.7987 231.255Z"/>
	<path fill="#FD8432" transform="scale(2 2)" d="M409.123 102.577C417.561 100.08 426.096 98.2246 434.93 97.9703C438.668 97.8627 442.871 98.8356 446.514 98.0951C462.773 102.849 475.24 108.517 469.753 126.889C463.577 147.57 450.408 163.119 434.989 177.482C433.584 178.79 431.984 180.069 430.738 181.525C425.771 181.145 421.531 180.243 418.118 176.313C406.445 162.87 432.644 158.578 434.385 142.391C437.485 113.566 409.863 123.641 409.123 102.577Z"/>
	<path fill="#FD8432" transform="scale(2 2)" d="M98.3046 334.065C120.581 325.597 141.3 314.382 161.005 301.023C156.993 316.026 135.01 391.415 121.879 399.281C119.417 400.755 116.095 401.107 113.67 399.371C113.283 397.591 110.877 394.208 109.981 392.249C105.122 381.63 103.196 370.299 101.513 358.831C100.908 354.707 99.5579 335.991 98.3046 334.065Z"/>
	<path fill="#FD8432" transform="scale(2 2)" d="M216.541 90.8519C221.707 92.876 227.199 95.2157 231.949 98.0951C226.184 108.754 232.47 110.689 234.082 106.785C234.997 104.568 234.837 101.843 235.306 99.4987C246.606 104.088 259.567 110.889 270.489 116.376L312.135 136.962L286.357 152.227C282.343 154.626 278.177 156.859 274.268 159.422C255.575 148.256 237.25 136.447 218.702 125.042L198.559 112.694C195.744 110.985 192.411 109.396 189.789 107.437C194.987 98.2913 199.23 94.6868 210.26 92.0862C212.344 91.5947 214.618 91.947 216.541 90.8519Z"/>
	<path fill="#FD8432" transform="scale(2 2)" d="M348.404 244.007C350.328 242.478 359.632 236.898 361.514 236.961C367.096 243.709 372.043 253.874 376.636 261.544C383.722 273.377 397.076 293.253 402.109 305.645C400.705 306.216 384.192 313.307 391.11 315.698C393.408 315.593 401.671 310.405 404.916 309.162L405.066 309.578C409.451 321.6 421.398 330.28 414.525 345.143C409.958 355.019 398.887 359.411 389.287 362.99C384.141 350.921 379.408 338.623 374.458 326.466L347.342 260.486C346.008 257.162 344.195 251.594 342.449 248.663L342.329 248.363C342.938 246.972 346.997 244.905 348.404 244.007Z"/>
	<path fill="#FD8432" transform="scale(2 2)" d="M348.404 244.007L349.362 244.895C347.313 246.247 344.925 248.325 342.449 248.663L342.329 248.363C342.938 246.972 346.997 244.905 348.404 244.007Z"/>
	<path fill="#FD8432" transform="scale(2 2)" d="M348.404 244.007C350.328 242.478 359.632 236.898 361.514 236.961C357.914 239.45 353.266 243.163 349.362 244.895L348.404 244.007Z"/>
	<path fill="#FD8432" transform="scale(2 2)" d="M133.921 266.39C139.086 266.259 163.346 265.958 166.678 267.389C172.158 267.952 179.077 267.956 183.952 270.667C191.477 274.602 177.405 283.318 174.708 285.471C151.147 304.285 92.4851 342.69 59.7351 334.065C60.427 331.34 58.2066 329.15 60.4277 324.547C69.1394 306.495 110.809 278.961 130.215 269.275C131.635 268.566 134.794 267.895 135.733 266.774L135.594 266.56L133.921 266.39Z"/>
	<path fill="#FD8432" transform="scale(2 2)" d="M166.678 267.389C172.158 267.952 179.077 267.956 183.952 270.667C182.12 271.391 167.975 268.722 166.182 267.605L166.678 267.389Z"/>
	<path fill="#FD8432" transform="scale(2 2)" d="M185.413 217.888C180.877 212.525 176.771 206.838 172.517 201.254L115.665 126.147C109.535 118.109 101.366 108.478 96.3141 99.9144C88.2694 86.2759 95.315 67.612 112.299 67.788C114.15 67.8071 115.948 68.2354 117.81 68.1075C122.08 69.839 126.683 73.3894 130.668 75.8703L230.324 137.222C243.799 145.548 257.144 154.093 270.733 162.231C247.782 176.912 225.319 192.284 202.447 207.07C198.63 209.538 189.026 216.684 185.413 217.888Z"/>
	<path fill="#FD8432" transform="scale(2 2)" d="M251.54 299.089C277.13 285.194 301.418 272.431 326.698 257.286C330.418 255.057 334.489 252.094 338.519 250.533L397.345 393.935C399.771 399.89 402.874 406.091 404.344 412.358C409.126 432.753 389.201 449.614 370.176 441.573C369.242 441.179 367.524 440.487 366.95 439.671C365.939 438.061 364.461 436.579 363.239 435.107L261.44 310.891C258.188 306.944 254.645 303.137 251.54 299.089Z"/>
	<path fill="#FD8432" transform="scale(2 2)" d="M280.463 165.404C284.273 164.851 305.129 152.853 309.436 150.428C323.724 142.381 391.141 104.779 404.916 104.084C406.5 116.252 409.378 117.878 419.596 122.087C430.202 126.455 433.471 140.384 426.679 149.384C420.846 157.112 409.574 159.501 411.217 171.391C412.234 178.754 418.67 184.053 425.664 185.488C400.741 205.974 373.138 223.16 345.852 240.267C307.519 264.299 202.298 328.918 158.062 326.987L163.191 308.918C165.79 299.647 164.257 298.835 171.977 292.917C176.747 289.261 189.024 281.057 190.144 275.575C193.2 260.612 153.303 262.241 145.706 262.444C148.245 259.455 152.096 256.777 155.096 254.214C166.287 244.654 177.541 235.674 189.467 227.082C191.239 225.805 193.17 224.575 194.785 223.108C197.764 220.581 201.512 218.444 204.772 216.27L260.981 178.439C267.035 174.275 274.069 168.716 280.463 165.404Z"/>
</svg>
